<?xml version="1.0" standalone="no"?>
<svg version="1.0" xmlns="http://www.w3.org/2000/svg"
 width="32px" height="32px" viewBox="0 0 300.000000 300.000000"
 preserveAspectRatio="xMidYMid meet">

<g transform="translate(0.000000,300.000000) scale(0.100000,-0.100000)"
fill="#006450" stroke="none">
<path d="M866 2602 c-370 -215 -587 -347 -600 -365 -21 -28 -21 -33 -21 -748
l0 -719 25 -24 c14 -13 284 -173 600 -356 546 -316 578 -333 626 -334 49 0 72
12 625 333 316 183 584 343 597 354 12 11 27 37 33 56 7 24 9 272 7 732 -3
667 -4 698 -22 718 -10 11 -281 171 -601 356 -570 328 -583 335 -636 335 -53
-1 -69 -9 -633 -338z m846 -196 c171 -46 314 -126 430 -238 69 -67 158 -182
158 -203 0 -12 -298 -192 -304 -184 -2 2 -17 25 -34 50 -79 117 -231 209 -379
231 -377 55 -699 -267 -645 -644 17 -124 80 -245 169 -329 38 -35 92 -76 120
-92 69 -37 191 -67 273 -67 82 0 204 30 273 67 61 34 157 120 198 179 l29 43
150 -87 c82 -48 149 -91 150 -95 1 -18 -84 -130 -146 -191 -365 -366 -952
-363 -1315 5 -429 435 -328 1153 206 1458 84 48 187 86 290 106 88 18 298 12
377 -9z m744 -628 c-4 -18 -9 -52 -13 -75 l-6 -43 40 0 40 0 14 73 14 72 59 3
59 3 -7 -38 c-3 -21 -9 -55 -12 -75 -6 -36 -5 -38 20 -38 25 0 26 -2 26 -55
l0 -55 -39 0 c-38 0 -38 0 -48 -50 l-10 -50 48 0 49 0 0 -55 0 -55 -59 0 -60
0 -11 -57 c-17 -87 -13 -83 -78 -83 l-60 0 14 63 c7 34 13 65 14 70 0 13 -80
8 -85 -5 -2 -7 -9 -39 -15 -70 l-11 -58 -60 0 c-53 0 -60 2 -55 18 2 9 7 33
11 52 4 19 9 43 11 53 4 13 -1 17 -25 17 -31 0 -31 0 -31 55 l0 55 39 0 c42 0
43 1 56 68 l7 32 -51 0 -51 0 0 55 0 54 62 3 62 3 7 35 c4 19 10 52 13 73 l7
37 61 0 61 0 -7 -32z"/>
<path d="M2401 1506 c-6 -25 -11 -47 -11 -50 0 -9 78 -7 83 2 3 4 8 26 12 50
l7 42 -40 0 c-39 0 -40 -1 -51 -44z"/>
</g>
</svg>
