<?xml version="1.0" standalone="no"?>
<svg version="1.0" xmlns="http://www.w3.org/2000/svg"
 width="32px" height="32px" viewBox="0 0 512.000000 512.000000"
 preserveAspectRatio="xMidYMid meet">

<g transform="translate(0.000000,512.000000) scale(0.100000,-0.100000)"
fill="#006450" stroke="none">
<path d="M10 2565 l0 -2555 2555 0 2555 0 -2 2553 -3 2552 -2552 3 -2553 2 0
-2555z m4113 206 c105 -27 203 -81 282 -153 61 -56 155 -174 155 -194 0 -12
-124 -99 -255 -179 -98 -60 -111 -65 -120 -50 -68 116 -181 185 -301 185 -88
0 -179 -55 -210 -127 -20 -47 -18 -137 5 -181 39 -76 102 -117 325 -214 406
-176 556 -287 641 -473 48 -103 60 -165 60 -300 0 -209 -47 -330 -179 -460
-95 -95 -181 -142 -332 -182 -88 -23 -118 -26 -274 -27 -218 -1 -335 22 -485
97 -133 65 -273 192 -356 320 l-39 60 32 22 c18 12 105 64 192 115 l159 92 21
-28 c41 -57 120 -135 174 -171 72 -47 138 -72 224 -83 266 -33 453 134 364
325 -41 89 -99 128 -343 234 -90 39 -191 85 -225 102 -245 123 -388 280 -434
477 -22 90 -22 267 0 350 62 242 272 418 551 462 92 14 278 4 368 -19z m-1343
-809 c0 -833 -5 -959 -41 -1100 -77 -302 -341 -467 -719 -449 -291 14 -494
132 -639 373 l-35 56 25 19 c26 19 357 219 363 219 2 0 18 -25 35 -55 92 -163
257 -230 402 -163 66 30 100 78 118 166 7 36 11 322 11 897 l0 845 240 0 240
0 0 -808z"/>
</g>
</svg>
